<?xml version="1.0" encoding="UTF-8" standalone="no"?>
<!DOCTYPE svg PUBLIC "-//W3C//DTD SVG 1.1//EN"
 "http://www.w3.org/Graphics/SVG/1.1/DTD/svg11.dtd">
<!-- Generated by graphviz version 2.38.0 (20140413.2041)
 -->
<!-- Title: G Pages: 1 -->
<svg width="638pt" height="1206pt"
 viewBox="0.00 0.00 638.27 1206.00" xmlns="http://www.w3.org/2000/svg" xmlns:xlink="http://www.w3.org/1999/xlink">
<g id="graph0" class="graph" transform="scale(1 1) rotate(0) translate(4 1202)">
<title>G</title>
<polygon fill="white" stroke="none" points="-4,4 -4,-1202 634.266,-1202 634.266,4 -4,4"/>
<g id="clust1" class="cluster"><title>cluster_Global</title>
<path fill="none" stroke="gray" d="M157.883,-98C157.883,-98 610.266,-98 610.266,-98 616.266,-98 622.266,-104 622.266,-110 622.266,-110 622.266,-1178 622.266,-1178 622.266,-1184 616.266,-1190 610.266,-1190 610.266,-1190 157.883,-1190 157.883,-1190 151.883,-1190 145.883,-1184 145.883,-1178 145.883,-1178 145.883,-110 145.883,-110 145.883,-104 151.883,-98 157.883,-98"/>
<text text-anchor="middle" x="384.074" y="-1177.2" font-family="Times New Roman,serif" font-size="11.00" fill="gray">Global</text>
</g>
<g id="clust2" class="cluster"><title>cluster_\classes</title>
<path fill="none" stroke="gray" d="M463.266,-544C463.266,-544 602.266,-544 602.266,-544 608.266,-544 614.266,-550 614.266,-556 614.266,-556 614.266,-1150 614.266,-1150 614.266,-1156 608.266,-1162 602.266,-1162 602.266,-1162 463.266,-1162 463.266,-1162 457.266,-1162 451.266,-1156 451.266,-1150 451.266,-1150 451.266,-556 451.266,-556 451.266,-550 457.266,-544 463.266,-544"/>
<text text-anchor="middle" x="532.766" y="-1149.2" font-family="Times New Roman,serif" font-size="11.00" fill="gray">classes</text>
</g>
<g id="clust3" class="cluster"><title>cluster_\classes\business</title>
<path fill="none" stroke="gray" d="M477.766,-954C477.766,-954 587.766,-954 587.766,-954 593.766,-954 599.766,-960 599.766,-966 599.766,-966 599.766,-1122 599.766,-1122 599.766,-1128 593.766,-1134 587.766,-1134 587.766,-1134 477.766,-1134 477.766,-1134 471.766,-1134 465.766,-1128 465.766,-1122 465.766,-1122 465.766,-966 465.766,-966 465.766,-960 471.766,-954 477.766,-954"/>
<text text-anchor="middle" x="532.766" y="-1121.2" font-family="Times New Roman,serif" font-size="11.00" fill="gray">business</text>
</g>
<g id="clust4" class="cluster"><title>cluster_\classes\data</title>
<path fill="none" stroke="gray" d="M471.266,-820C471.266,-820 594.266,-820 594.266,-820 600.266,-820 606.266,-826 606.266,-832 606.266,-832 606.266,-934 606.266,-934 606.266,-940 600.266,-946 594.266,-946 594.266,-946 471.266,-946 471.266,-946 465.266,-946 459.266,-940 459.266,-934 459.266,-934 459.266,-832 459.266,-832 459.266,-826 465.266,-820 471.266,-820"/>
<text text-anchor="middle" x="532.766" y="-933.2" font-family="Times New Roman,serif" font-size="11.00" fill="gray">data</text>
</g>
<g id="clust5" class="cluster"><title>cluster_\classes\entity</title>
<path fill="none" stroke="gray" d="M501.266,-686C501.266,-686 564.266,-686 564.266,-686 570.266,-686 576.266,-692 576.266,-698 576.266,-698 576.266,-800 576.266,-800 576.266,-806 570.266,-812 564.266,-812 564.266,-812 501.266,-812 501.266,-812 495.266,-812 489.266,-806 489.266,-800 489.266,-800 489.266,-698 489.266,-698 489.266,-692 495.266,-686 501.266,-686"/>
<text text-anchor="middle" x="532.766" y="-799.2" font-family="Times New Roman,serif" font-size="11.00" fill="gray">entity</text>
</g>
<g id="clust6" class="cluster"><title>cluster_\classes\util</title>
<path fill="none" stroke="gray" d="M508.266,-552C508.266,-552 557.266,-552 557.266,-552 563.266,-552 569.266,-558 569.266,-564 569.266,-564 569.266,-666 569.266,-666 569.266,-672 563.266,-678 557.266,-678 557.266,-678 508.266,-678 508.266,-678 502.266,-678 496.266,-672 496.266,-666 496.266,-666 496.266,-564 496.266,-564 496.266,-558 502.266,-552 508.266,-552"/>
<text text-anchor="middle" x="532.766" y="-665.2" font-family="Times New Roman,serif" font-size="11.00" fill="gray">util</text>
</g>
<g id="clust7" class="cluster"><title>cluster_\League</title>
<path fill="none" stroke="gray" d="M484.266,-312C484.266,-312 581.266,-312 581.266,-312 587.266,-312 593.266,-318 593.266,-324 593.266,-324 593.266,-480 593.266,-480 593.266,-486 587.266,-492 581.266,-492 581.266,-492 484.266,-492 484.266,-492 478.266,-492 472.266,-486 472.266,-480 472.266,-480 472.266,-324 472.266,-324 472.266,-318 478.266,-312 484.266,-312"/>
<text text-anchor="middle" x="532.766" y="-479.2" font-family="Times New Roman,serif" font-size="11.00" fill="gray">League</text>
</g>
<g id="clust8" class="cluster"><title>cluster_\League\OAuth2</title>
<path fill="none" stroke="gray" d="M492.266,-320C492.266,-320 573.266,-320 573.266,-320 579.266,-320 585.266,-326 585.266,-332 585.266,-332 585.266,-452 585.266,-452 585.266,-458 579.266,-464 573.266,-464 573.266,-464 492.266,-464 492.266,-464 486.266,-464 480.266,-458 480.266,-452 480.266,-452 480.266,-332 480.266,-332 480.266,-326 486.266,-320 492.266,-320"/>
<text text-anchor="middle" x="532.766" y="-451.2" font-family="Times New Roman,serif" font-size="11.00" fill="gray">OAuth2</text>
</g>
<g id="clust9" class="cluster"><title>cluster_\League\OAuth2\Client</title>
<path fill="none" stroke="gray" d="M500.266,-328C500.266,-328 565.266,-328 565.266,-328 571.266,-328 577.266,-334 577.266,-340 577.266,-340 577.266,-424 577.266,-424 577.266,-430 571.266,-436 565.266,-436 565.266,-436 500.266,-436 500.266,-436 494.266,-436 488.266,-430 488.266,-424 488.266,-424 488.266,-340 488.266,-340 488.266,-334 494.266,-328 500.266,-328"/>
<text text-anchor="middle" x="532.766" y="-423.2" font-family="Times New Roman,serif" font-size="11.00" fill="gray">Client</text>
</g>
<g id="clust10" class="cluster"><title>cluster_\League\OAuth2\Client\Provider</title>
<path fill="none" stroke="gray" d="M508.266,-336C508.266,-336 557.266,-336 557.266,-336 563.266,-336 569.266,-342 569.266,-348 569.266,-348 569.266,-396 569.266,-396 569.266,-402 563.266,-408 557.266,-408 557.266,-408 508.266,-408 508.266,-408 502.266,-408 496.266,-402 496.266,-396 496.266,-396 496.266,-348 496.266,-348 496.266,-342 502.266,-336 508.266,-336"/>
<text text-anchor="middle" x="532.766" y="-395.2" font-family="Times New Roman,serif" font-size="11.00" fill="gray">Provider</text>
</g>
<!-- \\classes\\business\\FeedbackManager -->
<g id="node1" class="node"><title>\\classes\\business\\FeedbackManager</title>
<polygon fill="none" stroke="black" points="591.766,-1106 473.766,-1106 473.766,-1070 591.766,-1070 591.766,-1106"/>
<text text-anchor="middle" x="532.766" y="-1085.2" font-family="Courier,monospace" font-size="11.00">FeedbackManager</text>
</g>
<!-- \\classes\\business\\UserManager -->
<g id="node2" class="node"><title>\\classes\\business\\UserManager</title>
<polygon fill="none" stroke="black" points="578.266,-1052 487.266,-1052 487.266,-1016 578.266,-1016 578.266,-1052"/>
<text text-anchor="middle" x="532.766" y="-1031.2" font-family="Courier,monospace" font-size="11.00">UserManager</text>
</g>
<!-- \\classes\\business\\Validation -->
<g id="node3" class="node"><title>\\classes\\business\\Validation</title>
<polygon fill="none" stroke="black" points="574.766,-998 490.766,-998 490.766,-962 574.766,-962 574.766,-998"/>
<text text-anchor="middle" x="532.766" y="-977.2" font-family="Courier,monospace" font-size="11.00">Validation</text>
</g>
<!-- \\classes\\data\\FeedbackManagerDB -->
<g id="node4" class="node"><title>\\classes\\data\\FeedbackManagerDB</title>
<polygon fill="none" stroke="black" points="598.266,-918 467.266,-918 467.266,-882 598.266,-882 598.266,-918"/>
<text text-anchor="middle" x="532.766" y="-897.2" font-family="Courier,monospace" font-size="11.00">FeedbackManagerDB</text>
</g>
<!-- \\classes\\data\\UserManagerDB -->
<g id="node5" class="node"><title>\\classes\\data\\UserManagerDB</title>
<polygon fill="none" stroke="black" points="584.766,-864 480.766,-864 480.766,-828 584.766,-828 584.766,-864"/>
<text text-anchor="middle" x="532.766" y="-843.2" font-family="Courier,monospace" font-size="11.00">UserManagerDB</text>
</g>
<!-- \\classes\\entity\\Feedback -->
<g id="node6" class="node"><title>\\classes\\entity\\Feedback</title>
<polygon fill="none" stroke="black" points="568.266,-784 497.266,-784 497.266,-748 568.266,-748 568.266,-784"/>
<text text-anchor="middle" x="532.766" y="-763.2" font-family="Courier,monospace" font-size="11.00">Feedback</text>
</g>
<!-- \\classes\\entity\\User -->
<g id="node7" class="node"><title>\\classes\\entity\\User</title>
<polygon fill="none" stroke="black" points="559.766,-730 505.766,-730 505.766,-694 559.766,-694 559.766,-730"/>
<text text-anchor="middle" x="532.766" y="-709.2" font-family="Courier,monospace" font-size="11.00">User</text>
</g>
<!-- \\classes\\util\\Config -->
<g id="node8" class="node"><title>\\classes\\util\\Config</title>
<polygon fill="none" stroke="black" points="561.266,-650 504.266,-650 504.266,-614 561.266,-614 561.266,-650"/>
<text text-anchor="middle" x="532.766" y="-629.2" font-family="Courier,monospace" font-size="11.00">Config</text>
</g>
<!-- \\classes\\util\\DBUtil -->
<g id="node9" class="node"><title>\\classes\\util\\DBUtil</title>
<polygon fill="none" stroke="black" points="561.266,-596 504.266,-596 504.266,-560 561.266,-560 561.266,-596"/>
<text text-anchor="middle" x="532.766" y="-575.2" font-family="Courier,monospace" font-size="11.00">DBUtil</text>
</g>
<!-- \\League\\OAuth2\\Client\\Provider\\Google -->
<g id="node10" class="node"><title>\\League\\OAuth2\\Client\\Provider\\Google</title>
<polygon fill="none" stroke="black" points="561.266,-380 504.266,-380 504.266,-344 561.266,-344 561.266,-380"/>
<text text-anchor="middle" x="532.766" y="-359.2" font-family="Courier,monospace" font-size="11.00">Google</text>
</g>
<!-- \\League\\OAuth2\\Client\\Provider\\AbstractProvider -->
<g id="node18" class="node"><title>\\League\\OAuth2\\Client\\Provider\\AbstractProvider</title>
<ellipse fill="none" stroke="black" cx="192.383" cy="-72" rx="192.266" ry="18"/>
<text text-anchor="middle" x="192.383" y="-68.3" font-family="Times New Roman,serif" font-size="14.00" fill="gray">\League\OAuth2\Client\Provider\AbstractProvider</text>
</g>
<!-- \\League\\OAuth2\\Client\\Provider\\Google&#45;&gt;\\League\\OAuth2\\Client\\Provider\\AbstractProvider -->
<g id="edge3" class="edge"><title>\\League\\OAuth2\\Client\\Provider\\Google&#45;&gt;\\League\\OAuth2\\Client\\Provider\\AbstractProvider</title>
<path fill="none" stroke="black" d="M504.071,-361.184C486.708,-359.21 465.077,-353.849 451.266,-340 371.291,-259.804 470.611,-167.878 384.766,-94 381.175,-90.9099 377.396,-88.0945 373.46,-85.5327"/>
<polygon fill="none" stroke="black" points="375,-82.3774 364.606,-80.3215 371.449,-88.4101 375,-82.3774"/>
</g>
<!-- \\PHPMailer -->
<g id="node11" class="node"><title>\\PHPMailer</title>
<polygon fill="none" stroke="black" points="230.883,-536 153.883,-536 153.883,-500 230.883,-500 230.883,-536"/>
<text text-anchor="middle" x="192.383" y="-515.2" font-family="Courier,monospace" font-size="11.00">PHPMailer</text>
</g>
<!-- \\phpmailerException -->
<g id="node12" class="node"><title>\\phpmailerException</title>
<polygon fill="none" stroke="black" points="601.766,-304 463.766,-304 463.766,-268 601.766,-268 601.766,-304"/>
<text text-anchor="middle" x="532.766" y="-283.2" font-family="Courier,monospace" font-size="11.00">phpmailerException</text>
</g>
<!-- \\Exception -->
<g id="node17" class="node"><title>\\Exception</title>
<ellipse fill="none" stroke="black" cx="192.383" cy="-18" rx="50.0912" ry="18"/>
<text text-anchor="middle" x="192.383" y="-14.3" font-family="Times New Roman,serif" font-size="14.00" fill="gray">\Exception</text>
</g>
<!-- \\phpmailerException&#45;&gt;\\Exception -->
<g id="edge1" class="edge"><title>\\phpmailerException&#45;&gt;\\Exception</title>
<path fill="none" stroke="black" d="M463.433,-268.623C458.999,-265.873 454.873,-262.689 451.266,-259 381.63,-187.792 460.631,-109.53 384.766,-45 347.812,-13.5676 291.556,-9.02706 249.586,-11.0289"/>
<polygon fill="none" stroke="black" points="249.282,-7.54088 239.515,-11.6461 249.71,-14.5278 249.282,-7.54088"/>
</g>
<!-- \\PHPMailerOAuth -->
<g id="node13" class="node"><title>\\PHPMailerOAuth</title>
<polygon fill="none" stroke="black" points="588.266,-536 477.266,-536 477.266,-500 588.266,-500 588.266,-536"/>
<text text-anchor="middle" x="532.766" y="-515.2" font-family="Courier,monospace" font-size="11.00">PHPMailerOAuth</text>
</g>
<!-- \\PHPMailerOAuth&#45;&gt;\\PHPMailer -->
<g id="edge2" class="edge"><title>\\PHPMailerOAuth&#45;&gt;\\PHPMailer</title>
<path fill="none" stroke="black" d="M477.023,-518C411.776,-518 303.78,-518 241.569,-518"/>
<polygon fill="none" stroke="black" points="241.249,-514.5 231.249,-518 241.249,-521.5 241.249,-514.5"/>
</g>
<!-- \\PHPMailerOAuthGoogle -->
<g id="node14" class="node"><title>\\PHPMailerOAuthGoogle</title>
<polygon fill="none" stroke="black" points="608.766,-250 456.766,-250 456.766,-214 608.766,-214 608.766,-250"/>
<text text-anchor="middle" x="532.766" y="-229.2" font-family="Courier,monospace" font-size="11.00">PHPMailerOAuthGoogle</text>
</g>
<!-- \\POP3 -->
<g id="node15" class="node"><title>\\POP3</title>
<polygon fill="none" stroke="black" points="559.766,-196 505.766,-196 505.766,-160 559.766,-160 559.766,-196"/>
<text text-anchor="middle" x="532.766" y="-175.2" font-family="Courier,monospace" font-size="11.00">POP3</text>
</g>
<!-- \\SMTP -->
<g id="node16" class="node"><title>\\SMTP</title>
<polygon fill="none" stroke="black" points="559.766,-142 505.766,-142 505.766,-106 559.766,-106 559.766,-142"/>
<text text-anchor="middle" x="532.766" y="-121.2" font-family="Courier,monospace" font-size="11.00">SMTP</text>
</g>
</g>
</svg>
