<?xml version="1.0" encoding="UTF-8" standalone="no"?>
<!DOCTYPE svg PUBLIC "-//W3C//DTD SVG 1.1//EN"
 "http://www.w3.org/Graphics/SVG/1.1/DTD/svg11.dtd">
<!-- Generated by graphviz version 2.38.0 (20140413.2041)
 -->
<!-- Title: G Pages: 1 -->
<svg width="633pt" height="1152pt"
 viewBox="0.00 0.00 632.77 1152.00" xmlns="http://www.w3.org/2000/svg" xmlns:xlink="http://www.w3.org/1999/xlink">
<g id="graph0" class="graph" transform="scale(1 1) rotate(0) translate(4 1148)">
<title>G</title>
<polygon fill="white" stroke="none" points="-4,4 -4,-1148 628.766,-1148 628.766,4 -4,4"/>
<g id="clust1" class="cluster"><title>cluster_Global</title>
<path fill="none" stroke="gray" d="M157.883,-152C157.883,-152 604.766,-152 604.766,-152 610.766,-152 616.766,-158 616.766,-164 616.766,-164 616.766,-1124 616.766,-1124 616.766,-1130 610.766,-1136 604.766,-1136 604.766,-1136 157.883,-1136 157.883,-1136 151.883,-1136 145.883,-1130 145.883,-1124 145.883,-1124 145.883,-164 145.883,-164 145.883,-158 151.883,-152 157.883,-152"/>
<text text-anchor="middle" x="381.324" y="-1123.2" font-family="Times New Roman,serif" font-size="11.00" fill="gray">Global</text>
</g>
<g id="clust2" class="cluster"><title>cluster_\classes</title>
<path fill="none" stroke="gray" d="M476.766,-652C476.766,-652 588.766,-652 588.766,-652 594.766,-652 600.766,-658 600.766,-664 600.766,-664 600.766,-1096 600.766,-1096 600.766,-1102 594.766,-1108 588.766,-1108 588.766,-1108 476.766,-1108 476.766,-1108 470.766,-1108 464.766,-1102 464.766,-1096 464.766,-1096 464.766,-664 464.766,-664 464.766,-658 470.766,-652 476.766,-652"/>
<text text-anchor="middle" x="532.766" y="-1095.2" font-family="Times New Roman,serif" font-size="11.00" fill="gray">classes</text>
</g>
<g id="clust3" class="cluster"><title>cluster_\classes\business</title>
<path fill="none" stroke="gray" d="M491.266,-954C491.266,-954 574.266,-954 574.266,-954 580.266,-954 586.266,-960 586.266,-966 586.266,-966 586.266,-1068 586.266,-1068 586.266,-1074 580.266,-1080 574.266,-1080 574.266,-1080 491.266,-1080 491.266,-1080 485.266,-1080 479.266,-1074 479.266,-1068 479.266,-1068 479.266,-966 479.266,-966 479.266,-960 485.266,-954 491.266,-954"/>
<text text-anchor="middle" x="532.766" y="-1067.2" font-family="Times New Roman,serif" font-size="11.00" fill="gray">business</text>
</g>
<g id="clust4" class="cluster"><title>cluster_\classes\data</title>
<path fill="none" stroke="gray" d="M484.766,-874C484.766,-874 580.766,-874 580.766,-874 586.766,-874 592.766,-880 592.766,-886 592.766,-886 592.766,-934 592.766,-934 592.766,-940 586.766,-946 580.766,-946 580.766,-946 484.766,-946 484.766,-946 478.766,-946 472.766,-940 472.766,-934 472.766,-934 472.766,-886 472.766,-886 472.766,-880 478.766,-874 484.766,-874"/>
<text text-anchor="middle" x="532.766" y="-933.2" font-family="Times New Roman,serif" font-size="11.00" fill="gray">data</text>
</g>
<g id="clust5" class="cluster"><title>cluster_\classes\entity</title>
<path fill="none" stroke="gray" d="M509.766,-794C509.766,-794 555.766,-794 555.766,-794 561.766,-794 567.766,-800 567.766,-806 567.766,-806 567.766,-854 567.766,-854 567.766,-860 561.766,-866 555.766,-866 555.766,-866 509.766,-866 509.766,-866 503.766,-866 497.766,-860 497.766,-854 497.766,-854 497.766,-806 497.766,-806 497.766,-800 503.766,-794 509.766,-794"/>
<text text-anchor="middle" x="532.766" y="-853.2" font-family="Times New Roman,serif" font-size="11.00" fill="gray">entity</text>
</g>
<g id="clust6" class="cluster"><title>cluster_\classes\util</title>
<path fill="none" stroke="gray" d="M508.266,-660C508.266,-660 557.266,-660 557.266,-660 563.266,-660 569.266,-666 569.266,-672 569.266,-672 569.266,-774 569.266,-774 569.266,-780 563.266,-786 557.266,-786 557.266,-786 508.266,-786 508.266,-786 502.266,-786 496.266,-780 496.266,-774 496.266,-774 496.266,-672 496.266,-672 496.266,-666 502.266,-660 508.266,-660"/>
<text text-anchor="middle" x="532.766" y="-773.2" font-family="Times New Roman,serif" font-size="11.00" fill="gray">util</text>
</g>
<g id="clust7" class="cluster"><title>cluster_\League</title>
<path fill="none" stroke="gray" d="M484.266,-420C484.266,-420 581.266,-420 581.266,-420 587.266,-420 593.266,-426 593.266,-432 593.266,-432 593.266,-588 593.266,-588 593.266,-594 587.266,-600 581.266,-600 581.266,-600 484.266,-600 484.266,-600 478.266,-600 472.266,-594 472.266,-588 472.266,-588 472.266,-432 472.266,-432 472.266,-426 478.266,-420 484.266,-420"/>
<text text-anchor="middle" x="532.766" y="-587.2" font-family="Times New Roman,serif" font-size="11.00" fill="gray">League</text>
</g>
<g id="clust8" class="cluster"><title>cluster_\League\OAuth2</title>
<path fill="none" stroke="gray" d="M492.266,-428C492.266,-428 573.266,-428 573.266,-428 579.266,-428 585.266,-434 585.266,-440 585.266,-440 585.266,-560 585.266,-560 585.266,-566 579.266,-572 573.266,-572 573.266,-572 492.266,-572 492.266,-572 486.266,-572 480.266,-566 480.266,-560 480.266,-560 480.266,-440 480.266,-440 480.266,-434 486.266,-428 492.266,-428"/>
<text text-anchor="middle" x="532.766" y="-559.2" font-family="Times New Roman,serif" font-size="11.00" fill="gray">OAuth2</text>
</g>
<g id="clust9" class="cluster"><title>cluster_\League\OAuth2\Client</title>
<path fill="none" stroke="gray" d="M500.266,-436C500.266,-436 565.266,-436 565.266,-436 571.266,-436 577.266,-442 577.266,-448 577.266,-448 577.266,-532 577.266,-532 577.266,-538 571.266,-544 565.266,-544 565.266,-544 500.266,-544 500.266,-544 494.266,-544 488.266,-538 488.266,-532 488.266,-532 488.266,-448 488.266,-448 488.266,-442 494.266,-436 500.266,-436"/>
<text text-anchor="middle" x="532.766" y="-531.2" font-family="Times New Roman,serif" font-size="11.00" fill="gray">Client</text>
</g>
<g id="clust10" class="cluster"><title>cluster_\League\OAuth2\Client\Provider</title>
<path fill="none" stroke="gray" d="M508.266,-444C508.266,-444 557.266,-444 557.266,-444 563.266,-444 569.266,-450 569.266,-456 569.266,-456 569.266,-504 569.266,-504 569.266,-510 563.266,-516 557.266,-516 557.266,-516 508.266,-516 508.266,-516 502.266,-516 496.266,-510 496.266,-504 496.266,-504 496.266,-456 496.266,-456 496.266,-450 502.266,-444 508.266,-444"/>
<text text-anchor="middle" x="532.766" y="-503.2" font-family="Times New Roman,serif" font-size="11.00" fill="gray">Provider</text>
</g>
<!-- \\classes\\business\\UserManager -->
<g id="node1" class="node"><title>\\classes\\business\\UserManager</title>
<polygon fill="none" stroke="black" points="578.266,-1052 487.266,-1052 487.266,-1016 578.266,-1016 578.266,-1052"/>
<text text-anchor="middle" x="532.766" y="-1031.2" font-family="Courier,monospace" font-size="11.00">UserManager</text>
</g>
<!-- \\classes\\business\\Validation -->
<g id="node2" class="node"><title>\\classes\\business\\Validation</title>
<polygon fill="none" stroke="black" points="574.766,-998 490.766,-998 490.766,-962 574.766,-962 574.766,-998"/>
<text text-anchor="middle" x="532.766" y="-977.2" font-family="Courier,monospace" font-size="11.00">Validation</text>
</g>
<!-- \\classes\\data\\UserManagerDB -->
<g id="node3" class="node"><title>\\classes\\data\\UserManagerDB</title>
<polygon fill="none" stroke="black" points="584.766,-918 480.766,-918 480.766,-882 584.766,-882 584.766,-918"/>
<text text-anchor="middle" x="532.766" y="-897.2" font-family="Courier,monospace" font-size="11.00">UserManagerDB</text>
</g>
<!-- \\classes\\entity\\User -->
<g id="node4" class="node"><title>\\classes\\entity\\User</title>
<polygon fill="none" stroke="black" points="559.766,-838 505.766,-838 505.766,-802 559.766,-802 559.766,-838"/>
<text text-anchor="middle" x="532.766" y="-817.2" font-family="Courier,monospace" font-size="11.00">User</text>
</g>
<!-- \\classes\\util\\Config -->
<g id="node5" class="node"><title>\\classes\\util\\Config</title>
<polygon fill="none" stroke="black" points="561.266,-758 504.266,-758 504.266,-722 561.266,-722 561.266,-758"/>
<text text-anchor="middle" x="532.766" y="-737.2" font-family="Courier,monospace" font-size="11.00">Config</text>
</g>
<!-- \\classes\\util\\DBUtil -->
<g id="node6" class="node"><title>\\classes\\util\\DBUtil</title>
<polygon fill="none" stroke="black" points="561.266,-704 504.266,-704 504.266,-668 561.266,-668 561.266,-704"/>
<text text-anchor="middle" x="532.766" y="-683.2" font-family="Courier,monospace" font-size="11.00">DBUtil</text>
</g>
<!-- \\League\\OAuth2\\Client\\Provider\\Google -->
<g id="node7" class="node"><title>\\League\\OAuth2\\Client\\Provider\\Google</title>
<polygon fill="none" stroke="black" points="561.266,-488 504.266,-488 504.266,-452 561.266,-452 561.266,-488"/>
<text text-anchor="middle" x="532.766" y="-467.2" font-family="Courier,monospace" font-size="11.00">Google</text>
</g>
<!-- \\League\\OAuth2\\Client\\Provider\\AbstractProvider -->
<g id="node17" class="node"><title>\\League\\OAuth2\\Client\\Provider\\AbstractProvider</title>
<ellipse fill="none" stroke="black" cx="192.383" cy="-126" rx="192.266" ry="18"/>
<text text-anchor="middle" x="192.383" y="-122.3" font-family="Times New Roman,serif" font-size="14.00" fill="gray">\League\OAuth2\Client\Provider\AbstractProvider</text>
</g>
<!-- \\League\\OAuth2\\Client\\Provider\\Google&#45;&gt;\\League\\OAuth2\\Client\\Provider\\AbstractProvider -->
<g id="edge4" class="edge"><title>\\League\\OAuth2\\Client\\Provider\\Google&#45;&gt;\\League\\OAuth2\\Client\\Provider\\AbstractProvider</title>
<path fill="none" stroke="black" d="M503.981,-468.546C488.076,-466.254 468.925,-460.78 456.766,-448 362.251,-348.659 487.413,-238.914 384.766,-148 381.22,-144.859 377.48,-141.998 373.579,-139.397"/>
<polygon fill="none" stroke="black" points="375.166,-136.267 364.794,-134.106 371.555,-142.263 375.166,-136.267"/>
</g>
<!-- \\UserManagerTest -->
<g id="node8" class="node"><title>\\UserManagerTest</title>
<polygon fill="none" stroke="black" points="591.766,-412 473.766,-412 473.766,-376 591.766,-376 591.766,-412"/>
<text text-anchor="middle" x="532.766" y="-391.2" font-family="Courier,monospace" font-size="11.00">UserManagerTest</text>
</g>
<!-- \\PHPUnit_Framework_TestCase -->
<g id="node15" class="node"><title>\\PHPUnit_Framework_TestCase</title>
<ellipse fill="none" stroke="black" cx="192.383" cy="-72" rx="130.777" ry="18"/>
<text text-anchor="middle" x="192.383" y="-68.3" font-family="Times New Roman,serif" font-size="14.00" fill="gray">\PHPUnit_Framework_TestCase</text>
</g>
<!-- \\UserManagerTest&#45;&gt;\\PHPUnit_Framework_TestCase -->
<g id="edge1" class="edge"><title>\\UserManagerTest&#45;&gt;\\PHPUnit_Framework_TestCase</title>
<path fill="none" stroke="black" d="M473.703,-379.779C467.396,-376.389 461.545,-372.194 456.766,-367 373.253,-276.242 477.144,-180.718 384.766,-99 369.716,-85.6864 351.234,-77.1241 331.751,-71.8186"/>
<polygon fill="none" stroke="black" points="332.345,-68.3612 321.802,-69.4012 330.693,-75.1633 332.345,-68.3612"/>
</g>
<!-- \\PHPMailer -->
<g id="node9" class="node"><title>\\PHPMailer</title>
<polygon fill="none" stroke="black" points="230.883,-644 153.883,-644 153.883,-608 230.883,-608 230.883,-644"/>
<text text-anchor="middle" x="192.383" y="-623.2" font-family="Courier,monospace" font-size="11.00">PHPMailer</text>
</g>
<!-- \\phpmailerException -->
<g id="node10" class="node"><title>\\phpmailerException</title>
<polygon fill="none" stroke="black" points="601.766,-358 463.766,-358 463.766,-322 601.766,-322 601.766,-358"/>
<text text-anchor="middle" x="532.766" y="-337.2" font-family="Courier,monospace" font-size="11.00">phpmailerException</text>
</g>
<!-- \\Exception -->
<g id="node16" class="node"><title>\\Exception</title>
<ellipse fill="none" stroke="black" cx="192.383" cy="-18" rx="50.0912" ry="18"/>
<text text-anchor="middle" x="192.383" y="-14.3" font-family="Times New Roman,serif" font-size="14.00" fill="gray">\Exception</text>
</g>
<!-- \\phpmailerException&#45;&gt;\\Exception -->
<g id="edge2" class="edge"><title>\\phpmailerException&#45;&gt;\\Exception</title>
<path fill="none" stroke="black" d="M467.223,-321.88C463.4,-319.303 459.858,-316.361 456.766,-313 373.253,-222.242 477.144,-126.718 384.766,-45 348.197,-12.6508 291.372,-8.35204 249.13,-10.6679"/>
<polygon fill="none" stroke="black" points="248.735,-7.18669 238.999,-11.3636 249.215,-14.1702 248.735,-7.18669"/>
</g>
<!-- \\PHPMailerOAuth -->
<g id="node11" class="node"><title>\\PHPMailerOAuth</title>
<polygon fill="none" stroke="black" points="588.266,-644 477.266,-644 477.266,-608 588.266,-608 588.266,-644"/>
<text text-anchor="middle" x="532.766" y="-623.2" font-family="Courier,monospace" font-size="11.00">PHPMailerOAuth</text>
</g>
<!-- \\PHPMailerOAuth&#45;&gt;\\PHPMailer -->
<g id="edge3" class="edge"><title>\\PHPMailerOAuth&#45;&gt;\\PHPMailer</title>
<path fill="none" stroke="black" d="M477.023,-626C411.776,-626 303.78,-626 241.569,-626"/>
<polygon fill="none" stroke="black" points="241.249,-622.5 231.249,-626 241.249,-629.5 241.249,-622.5"/>
</g>
<!-- \\PHPMailerOAuthGoogle -->
<g id="node12" class="node"><title>\\PHPMailerOAuthGoogle</title>
<polygon fill="none" stroke="black" points="608.766,-304 456.766,-304 456.766,-268 608.766,-268 608.766,-304"/>
<text text-anchor="middle" x="532.766" y="-283.2" font-family="Courier,monospace" font-size="11.00">PHPMailerOAuthGoogle</text>
</g>
<!-- \\POP3 -->
<g id="node13" class="node"><title>\\POP3</title>
<polygon fill="none" stroke="black" points="559.766,-250 505.766,-250 505.766,-214 559.766,-214 559.766,-250"/>
<text text-anchor="middle" x="532.766" y="-229.2" font-family="Courier,monospace" font-size="11.00">POP3</text>
</g>
<!-- \\SMTP -->
<g id="node14" class="node"><title>\\SMTP</title>
<polygon fill="none" stroke="black" points="559.766,-196 505.766,-196 505.766,-160 559.766,-160 559.766,-196"/>
<text text-anchor="middle" x="532.766" y="-175.2" font-family="Courier,monospace" font-size="11.00">SMTP</text>
</g>
</g>
</svg>
